<svg width="42" height="32" viewBox="0 0 42 32" fill="none" xmlns="http://www.w3.org/2000/svg">
<path d="M34.1358 25.6426C31.5178 26.2971 26.9492 24.3988 26.9492 24.3988V26.8865C26.9492 26.8865 33.8445 30.253 37.1763 28.4067C39.6515 27.0351 40.8187 25.1464 41.046 22.3257C41.3191 18.9382 39.9587 16.186 37.0381 14.4481C36.2281 13.9661 34.9769 13.6079 34.1358 14.0335C33.257 14.4782 32.6021 15.5364 32.6156 16.5212C32.6547 19.3814 36.4853 20.5291 36.3471 23.0167C36.2594 24.5949 35.0659 25.4101 34.1358 25.6426Z" fill="#FBFBFD" fill-opacity="0.5"/>
<path fill-rule="evenodd" clip-rule="evenodd" d="M23.4942 6.57052H4.69841C3.47716 6.57052 2.48714 7.56053 2.48714 8.78178V27.5775C2.48714 28.7988 3.47716 29.7888 4.69841 29.7888H23.4942C24.7154 29.7888 25.7054 28.7988 25.7054 27.5775V8.78178C25.7054 7.56053 24.7154 6.57052 23.4942 6.57052ZM4.69841 4.35925C2.25591 4.35925 0.275879 6.33929 0.275879 8.78178V27.5775C0.275879 30.02 2.25591 32.0001 4.69841 32.0001H23.4942C25.9366 32.0001 27.9167 30.02 27.9167 27.5775V8.78178C27.9167 6.33929 25.9366 4.35925 23.4942 4.35925H4.69841Z" fill="#FBFBFD"/>
<mask id="mask0" mask-type="alpha" maskUnits="userSpaceOnUse" x="3" y="0" width="23" height="17">
<path d="M7.8181 0.715642C8.24575 0.280919 8.93528 0.322221 9.32065 0.79483C10.5802 2.33953 13.1421 5.71299 13.8628 8.41334C14.6615 11.4054 11.0237 15.1093 9.53212 16.475C9.17304 16.8037 8.64569 16.8285 8.25911 16.5326C6.64534 15.2973 2.66838 11.8653 3.22113 8.41334C3.73335 5.2145 6.4477 2.10873 7.8181 0.715642Z" fill="black"/>
<path d="M20.3533 0.715642C19.9256 0.280919 19.2361 0.322221 18.8507 0.79483C17.5912 2.33953 15.0293 5.71299 14.3086 8.41334C13.5099 11.4054 17.1476 15.1093 18.6393 16.475C18.9983 16.8037 19.5257 16.8285 19.9123 16.5326C21.5261 15.2973 25.503 11.8653 24.9503 8.41334C24.438 5.2145 21.7237 2.10873 20.3533 0.715642Z" fill="black"/>
</mask>
<g mask="url(#mask0)">
<rect x="-0.000488281" y="-2.55103" width="28.47" height="6.9102" fill="#FBFBFD" fill-opacity="0.5"/>
</g>
<path fill-rule="evenodd" clip-rule="evenodd" d="M10.2266 19.0087H0.275879V16.7975H10.2266V19.0087Z" fill="#FBFBFD"/>
<path fill-rule="evenodd" clip-rule="evenodd" d="M27.9165 19.0087H17.9658V16.7975H27.9165V19.0087Z" fill="#FBFBFD"/>
<path fill-rule="evenodd" clip-rule="evenodd" d="M14.0965 21.2201C15.7757 21.2201 17.137 19.8588 17.137 18.1796C17.137 16.5004 15.7757 15.1391 14.0965 15.1391C12.4173 15.1391 11.056 16.5004 11.056 18.1796C11.056 19.8588 12.4173 21.2201 14.0965 21.2201ZM14.0965 23.4314C16.9969 23.4314 19.3482 21.0801 19.3482 18.1796C19.3482 15.2791 16.9969 12.9279 14.0965 12.9279C11.196 12.9279 8.84473 15.2791 8.84473 18.1796C8.84473 21.0801 11.196 23.4314 14.0965 23.4314Z" fill="#FBFBFD"/>
</svg>
